<svg width="151" height="151" viewBox="0 0 151 151" fill="none" xmlns="http://www.w3.org/2000/svg">
<path d="M37.2506 27.8054C37.2506 29.729 37.416 31.6371 37.4734 33.5578C37.5257 35.3098 37.2919 37.16 37.6306 38.891C38.2619 42.1176 38.9806 45.2635 39.2555 48.5615C39.6576 53.3874 41.2603 58.1144 41.2603 62.9491" stroke="black" stroke-width="1.54" stroke-linecap="round"/>
<path d="M37.2506 27.0978C42.7023 25.5402 47.6565 22.7453 53.5253 23.3764C57.171 23.7684 60.117 26.5294 63.6413 27.0716C64.7634 27.2442 65.3069 27.8969 66.2751 28.513C67.7989 29.4828 69.4719 30.182 70.953 31.2254C72.4786 32.3002 74.0722 33.2102 75.5392 34.3703C77.0652 35.5769 78.4643 37.0584 80.0731 38.131C83.208 40.2209 86.0085 42.6449 89.2455 44.6042C90.8481 45.5741 92.5828 45.7326 94.2773 46.4386C96.0745 47.1875 97.916 48.1022 99.7809 48.6532C101.56 49.1789 103.479 49.1742 105.297 49.5049C107.007 49.8158 108.79 50.1126 110.526 50.1993C111.271 50.2366 114.378 50.4916 114.378 51.1559" stroke="black" stroke-width="1.54" stroke-linecap="round"/>
<path d="M37.9582 30.3999C40.571 30.3999 42.2468 28.467 44.5624 27.8054C45.5494 27.5234 46.0777 27.0978 47.1569 27.0978C48.2765 27.0978 49.109 26.3902 50.2231 26.3902C53.8078 26.3902 56.6735 28.5504 59.7757 30.0199C60.8409 30.5245 61.9104 31.2714 63.0646 31.5792C64.3073 31.9106 65.256 31.8599 66.393 32.5096C68.0148 33.4364 70.2483 33.9678 71.4509 35.4709C72.7009 37.0335 74.7197 37.4528 76.2861 38.5372C77.6505 39.4818 78.9014 39.9154 79.955 41.1449C81.3938 42.8233 83.4164 44.0919 85.1835 45.3641C85.903 45.8822 86.6371 46.4742 87.4897 46.8579C88.0913 47.1287 89.4849 47.8223 90.0842 47.8539C91.4975 47.9282 92.3881 48.7973 93.858 48.7973C95.3025 48.7973 95.8079 49.9902 96.9242 50.5794C97.8173 51.0507 98.8658 51.2357 99.7547 51.6801C100.62 52.113 100.877 52.3353 101.93 52.3353C102.812 52.3353 103.673 52.2756 104.524 52.5187C105.261 52.7292 106.205 52.5495 106.961 52.5711C107.811 52.5954 108.655 53.4241 109.477 53.698C110.8 54.1389 112.041 53.5145 113.435 53.5145C114.844 53.5145 112.963 50.604 112.963 49.9767" stroke="black" stroke-width="1.54" stroke-linecap="round"/>
<path d="M45.7417 28.2771C45.8341 32.5238 45.9776 36.7579 45.9776 41.0138" stroke="black" stroke-width="1.54" stroke-linecap="round"/>
<path d="M48.3362 27.5695C48.3362 32.2557 48.1004 36.844 48.1004 41.4856" stroke="black" stroke-width="1.54" stroke-linecap="round"/>
<path d="M55.1763 28.0412C55.248 30.9832 55.648 33.8373 55.648 36.7682C55.648 38.8323 55.4121 40.9249 55.4121 42.9006" stroke="black" stroke-width="1.54" stroke-linecap="round"/>
<path d="M58.7142 29.9282C58.7142 31.5006 58.7142 33.073 58.7142 34.6455C58.7142 35.6239 58.5063 36.9358 58.8976 37.8165C59.6716 39.5577 59.186 42.4342 59.186 44.3158" stroke="black" stroke-width="1.54" stroke-linecap="round"/>
<path d="M40.3169 40.542C42.1762 40.542 45.3084 39.9927 47.0259 40.7779C47.7791 41.1223 48.2175 41.2496 49.0438 41.2496C49.9423 41.2496 50.649 41.8261 51.5335 41.9442C52.6027 42.0867 53.9612 42.3771 55.0452 42.18C55.8207 42.039 56.5643 41.7573 57.3909 42.0751C58.428 42.4741 59.8622 42.9271 60.9419 43.1234C61.7306 43.2669 62.414 43.8194 63.1956 44.08" stroke="black" stroke-width="1.54" stroke-linecap="round"/>
<path d="M40.081 41.0138C40.081 41.6384 40.1804 42.3606 40.0679 42.9793C40.0464 43.0974 39.7151 43.2848 39.9762 43.3592C40.3914 43.4779 41.4643 43.1366 41.9679 43.1366C43.5984 43.1366 45.0407 43.5446 46.5804 43.8966C47.2471 44.049 47.9914 44.3158 48.6769 44.3158C49.2722 44.3158 49.8639 45.1365 50.5769 45.2462C51.8407 45.4407 53.3097 45.9669 54.5866 45.9669C55.1937 45.9669 55.8008 45.9669 56.4081 45.9669C57.3473 45.9669 57.6728 46.621 58.4784 46.8579C58.9615 47 59.7531 46.7038 60.1426 47.0284C60.3376 47.1909 61.6031 47.6181 61.8983 47.6181C62.2746 47.6181 63.2432 48.0985 63.0122 47.8015C62.8013 47.5302 62.9368 46.7997 62.7764 46.4387C62.3824 45.5522 62.488 44.1231 62.488 43.1366" stroke="black" stroke-width="1.54" stroke-linecap="round"/>
<path d="M41.0244 51.6277C41.0244 52.7118 40.6092 53.6772 40.5527 54.694C40.4823 55.9612 42.6326 55.4016 43.5665 55.4016C46.8965 55.4016 50.2414 55.6374 53.63 55.6374C54.4372 55.6374 54.9943 55.9819 55.7529 56.1615C56.9567 56.4466 58.2054 56.2573 59.3826 56.6987C61.3143 57.4231 63.5589 56.8177 65.5019 57.5242C66.7266 57.9697 68.2811 58.1644 69.5639 58.2318C71.0198 58.3085 72.7133 58.8041 74.0586 59.3325C79.488 61.4655 85.4053 62.0057 91.2636 62.0057C92.8072 62.0057 95.7259 61.4003 97.029 62.294C98.0652 63.0044 99.4903 62.9491 100.711 62.9491C102.026 62.9491 103.284 63.6476 104.603 63.4077C105.887 63.1744 106.54 63.2456 107.774 63.6567" stroke="black" stroke-width="1.54" stroke-linecap="round"/>
<path d="M40.5527 51.6277C43.8854 51.6277 47.2181 51.6277 50.5507 51.6277C51.9133 51.6277 53.5969 51.3701 54.9403 51.6801C55.9303 51.9085 56.5675 52.5711 57.6267 52.5711C58.3711 52.5711 58.0221 52.9394 58.5833 53.0953C61.5255 53.9125 64.6152 54.2908 67.4936 55.1132C68.7684 55.4774 70.638 55.8236 71.9751 55.8732C72.9953 55.911 73.9444 56.3067 74.9364 56.345C76.2362 56.395 77.1201 56.9097 78.3434 57.236C80.356 57.7727 82.669 57.2421 84.7642 57.7077C86.4721 58.0873 88.0667 58.0836 89.8222 58.2843C91.2504 58.4476 92.39 58.8692 93.7401 59.2801C94.2655 59.4401 94.994 59.8673 95.509 59.8828C97.6546 59.9479 99.6849 60.5904 101.877 60.5904C103.529 60.5904 105.159 61.0622 106.831 61.0622C108.042 61.0622 108.697 63.667 107.774 64.1285" stroke="black" stroke-width="1.54" stroke-linecap="round"/>
<path d="M43.1472 43.1366C43.1472 44.7265 43.1472 46.3164 43.1472 47.9062C43.1472 48.5922 43.481 51.3428 42.9114 51.6277" stroke="black" stroke-width="1.54" stroke-linecap="round"/>
<path d="M60.6012 47.1463C61.3281 49.3273 61.0728 51.7011 61.0728 53.9863" stroke="black" stroke-width="1.54" stroke-linecap="round"/>
<path d="M42.2037 55.6374C42.2037 58.3268 42.1391 61.2378 41.6796 63.8926C41.2565 66.3372 41.2603 68.6425 41.2603 71.152C41.2603 73.7337 41.4995 76.4152 40.972 78.9355C40.7051 80.2108 40.8502 81.468 40.7886 82.7617C40.7205 84.1917 40.3168 85.5224 40.3168 87.0072C40.3168 89.5438 40.081 92.0277 40.081 94.5549C40.081 95.288 40.0976 96.0234 40.081 96.7562C40.0606 97.6531 39.4832 98.4015 39.3865 99.2721C39.3233 99.8408 39.2482 100.425 39.0851 100.976C38.8424 101.795 39.0764 102.705 38.7706 103.492C38.0214 105.418 38.4761 107.82 38.181 109.886C38.1016 110.442 37.5081 110.791 37.4865 111.354C37.4617 111.997 37.2554 112.576 37.1327 113.214C36.5432 116.28 36.543 119.509 36.543 122.623" stroke="black" stroke-width="1.54" stroke-linecap="round"/>
<path d="M60.837 57.0526C60.837 60.2781 61.0728 63.4878 61.0728 66.7229C61.0728 67.3799 61.1178 67.9958 60.837 68.6099C59.9826 70.4789 60.0788 73.1412 59.7757 75.1617C59.0997 79.6677 60.1995 84.219 59.5267 88.7369C59.0032 92.2518 59.4652 95.9221 58.6618 99.4032C58.1305 101.706 58.0066 104.586 58.0066 106.951C58.0066 108.363 58.0831 109.653 58.5307 111.013C59.1433 112.874 59.2865 114.744 59.4088 116.7C59.5267 118.587 59.186 120.42 59.186 122.269C59.186 122.985 58.831 123.508 58.7274 124.182C58.6093 124.949 58.9502 125.632 58.9502 126.397" stroke="black" stroke-width="1.54" stroke-linecap="round"/>
<path d="M36.543 115.075C36.543 116.62 36.7789 118.144 36.7789 119.674C36.7789 120.671 36.543 121.64 36.543 122.623C36.543 123.409 36.543 124.195 36.543 124.981C36.543 125.672 36.2154 126.304 36.3203 126.986C36.5355 128.386 37.6833 128.284 38.9017 128.284C40.5964 128.284 42.2911 128.284 43.9859 128.284C47.3871 128.284 50.8908 128.048 54.3508 128.048C55.4691 128.048 56.5668 128.252 57.6397 128.284C57.7305 128.286 59.3144 128.303 59.1336 128.1C58.6606 127.568 57.7722 126.396 58.7142 125.925" stroke="black" stroke-width="1.54" stroke-linecap="round"/>
<path d="M37.0148 114.603C38.48 114.447 39.9094 114.368 41.3782 114.368C42.3098 114.368 43.0396 114.839 43.9727 114.839C45.6456 114.839 47.3185 114.839 48.9914 114.839C50.5027 114.839 52.014 114.839 53.5253 114.839C55.223 114.839 56.6177 114.457 58.2426 114.132" stroke="black" stroke-width="1.54" stroke-linecap="round"/>
<path d="M59.6578 87.0074C60.4999 85.2293 62.2477 83.8191 63.0122 82.2899C63.484 81.3465 64.7281 80.5751 65.646 80.1673C66.3972 79.8333 67.065 79.1818 67.782 78.8044C69.0528 78.1356 70.1518 77.7817 71.595 77.5597C73.3381 77.2915 74.9937 77.101 76.7579 77.101C78.2543 77.101 79.659 77.6578 81.1213 77.9921C83.7392 78.5904 85.6774 81.657 87.4897 83.4693C88.3994 84.379 89.7839 84.6175 90.556 85.7756C90.9236 86.327 91.0456 86.8335 91.3159 87.3743C91.3929 87.5284 91.7539 88.3429 91.8531 88.4224C92.1521 88.6617 91.961 89.6768 92.0891 90.0866C92.3743 90.9996 92.1378 91.9722 92.4428 92.9039C92.8745 94.2228 93.3862 95.3806 93.3862 96.8088C93.3862 98.2122 92.9682 99.6345 93.2683 101.015C93.5545 102.331 93.6222 104.081 93.6222 105.405C93.6222 106.334 93.1504 107.052 93.1504 107.881C93.1504 108.864 93.1504 109.847 93.1504 110.83" stroke="black" stroke-width="1.54" stroke-linecap="round"/>
<path d="M92.207 62.0057C92.207 63.4035 92.207 64.8011 92.207 66.1988C92.207 68.1918 93.1504 69.6893 93.1504 71.6762C93.1504 74.9077 92.9146 78.1556 92.9146 81.3465C92.9146 84.4532 93.1504 87.4542 93.1504 90.5452C93.1504 91.9258 93.3862 93.3128 93.3862 94.6598C93.3862 95.9027 93.858 96.5425 93.858 97.8571" stroke="black" stroke-width="1.54" stroke-linecap="round"/>
<path d="M105.651 63.4209C105.691 65.6345 106.314 67.7411 106.359 69.9464C106.413 72.6409 106.839 75.262 107.066 77.9395C107.262 80.2373 107.595 82.3783 107.879 84.6485C108.239 87.531 108.482 90.5715 108.482 93.4673C108.482 95.7482 109.189 97.945 109.189 100.216C109.189 101.839 109.425 103.513 109.844 105.064C110.299 106.748 109.942 108.418 110.185 110.122C110.667 113.495 110.133 117.07 110.133 120.5" stroke="black" stroke-width="1.54" stroke-linecap="round"/>
<path d="M93.1504 122.623C95.9423 122.623 98.6661 121.915 101.406 121.915C102.135 121.915 102.799 122.151 103.528 122.151C104.296 122.151 104.886 121.786 105.638 121.692C106.77 121.551 107.926 121.443 109.071 121.443C110.028 121.443 111.594 121.349 109.897 120.5" stroke="black" stroke-width="1.54" stroke-linecap="round"/>
<path d="M92.9146 110.122C94.9223 110.845 97.8471 111.164 99.9381 110.594C101.43 110.187 102.681 109.65 104.249 109.65C105.501 109.65 106.893 109.473 108.128 109.663C108.805 109.768 109.439 110.122 110.133 110.122" stroke="black" stroke-width="1.54" stroke-linecap="round"/>
<path d="M85.1311 97.3853C86.8406 97.3853 89.0172 97.0353 90.556 97.8046C91.4097 98.2315 92.5345 97.8571 93.3862 97.8571" stroke="black" stroke-width="1.54" stroke-linecap="round"/>
<path d="M84.8951 97.8571C84.8951 99.425 84.8951 100.993 84.8951 102.561C84.8951 103.473 85.3064 104.077 85.4848 104.933C85.871 106.787 85.4091 108.737 85.7206 110.607C86.2613 113.85 87.0179 116.955 87.0179 120.264" stroke="black" stroke-width="1.54" stroke-linecap="round"/>
<path d="M93.1504 110.829V123.566" stroke="black" stroke-width="1.54" stroke-linecap="round"/>
<path d="M86.3103 118.613C86.725 119.477 87.6413 120.134 88.3544 120.657C89.42 121.439 90.2555 122.491 91.3683 123.199C91.7985 123.473 92.2703 123.931 92.7311 124.09C93.6377 124.404 93.3862 124.33 93.3862 123.566" stroke="black" stroke-width="1.54" stroke-linecap="round"/>
<path d="M59.186 88.6584C59.8776 88.5816 60.1623 87.9828 60.7846 87.7673C61.3149 87.5837 62.0575 87.7148 62.6059 87.7148C63.1762 87.7148 63.7526 87.693 64.3225 87.7148C64.7531 87.7314 65.0148 88.1207 65.4495 88.1998C66.0521 88.3092 66.5275 88.4009 67.1529 88.4224C67.9979 88.4516 68.5017 89.1156 69.197 89.4839C69.6793 89.7392 71.2054 90.2205 71.4509 90.6501C71.5845 90.8839 72.0043 90.9429 72.2109 91.2528C72.4784 91.6542 73.4038 92.454 73.8096 92.7728C74.7546 93.5153 75.1295 94.2471 75.8275 95.1446C76.6862 96.2487 76.7115 99.0904 76.8626 100.452C77.0945 102.538 76.404 104.708 76.404 106.82C76.404 108.234 75.6958 112.428 77.164 113.005C78.1206 113.381 79.2835 114.147 79.9944 114.787C80.2459 115.013 80.7161 114.696 80.9904 114.97C81.2422 115.222 81.5111 115.36 81.7765 115.599C82.5646 116.309 83.2015 116.338 84.0828 116.779C84.8613 117.168 85.5533 118.108 86.3103 118.613" stroke="black" stroke-width="1.54" stroke-linecap="round"/>
<path d="M59.6578 70.2609C62.0968 70.2609 64.9458 70.3111 67.3364 70.7457C71.1505 71.4392 74.9924 71.8602 78.7888 72.6196C80.4593 72.9537 81.8872 73.3272 83.598 73.3272C84.8646 73.3272 86.1313 73.3272 87.398 73.3272C88.8596 73.3272 91.1469 73.5034 92.4428 72.8554" stroke="black" stroke-width="1.54" stroke-linecap="round"/>
<path d="M93.1504 48.0897C93.1504 52.1106 93.3862 56.0988 93.3862 60.1188" stroke="black" stroke-width="1.54" stroke-linecap="round"/>
<path d="M94.5656 49.7407C94.5656 51.973 94.8014 54.3291 94.8014 56.476C94.8014 57.6216 95.0373 58.5485 95.0373 59.647" stroke="black" stroke-width="1.54" stroke-linecap="round"/>
<path d="M99.9905 52.3353C99.9905 55.0831 99.7547 57.8862 99.7547 60.5904" stroke="black" stroke-width="1.54" stroke-linecap="round"/>
<path d="M101.406 52.5711C101.406 55.0928 101.642 57.5992 101.642 60.1188" stroke="black" stroke-width="1.54" stroke-linecap="round"/>
<path d="M58.7142 34.6454C60.3208 34.6454 63.8791 33.94 65.1874 35.2482C66.0867 36.1476 67.1564 37.0503 68.2012 37.8165C69.0249 38.4205 69.9882 38.4949 70.7957 39.1269C71.7711 39.8902 72.6739 40.7645 73.6917 41.4724C74.3721 41.9458 74.7491 42.4666 75.3557 42.9924C76.0837 43.6233 77.1413 43.9063 77.8454 44.5518C79.7738 46.3195 83.147 48.1181 85.7076 48.8497C88.123 49.5399 90.5417 51.6277 93.1504 51.6277" stroke="black" stroke-width="1.54" stroke-linecap="round"/>
<path d="M58.4784 37.24C61.1076 37.24 64.8429 38.0384 66.8384 39.8344C67.5275 40.4545 68.6097 40.6361 69.2757 41.3021C69.9543 41.9807 70.5398 42.6175 71.1888 43.3593C72.2338 44.5535 73.1846 45.6495 74.8579 45.9539C75.391 46.0508 76.3322 46.4746 76.7579 46.8056C77.5039 47.3858 78.6286 47.5001 79.3655 48.0897C80.1645 48.7289 81.5029 48.8172 82.4317 49.2691C83.43 49.7547 84.4359 50.2998 85.4586 50.789C87.0181 51.5349 88.3323 52.5206 89.8484 53.2787C90.2269 53.468 90.6762 53.3913 91.0276 53.5669C91.3219 53.7142 91.2549 54.1286 91.6173 54.209C92.3051 54.3619 92.901 54.458 93.6222 54.458" stroke="black" stroke-width="1.54" stroke-linecap="round"/>
<path d="M70.7433 43.3724C69.5801 44.846 68.2161 46.1354 66.8909 47.4608C66.3287 48.0231 65.4494 48.4331 64.9778 49.0331C64.3913 49.7796 63.7294 50.3031 63.1956 51.1036C62.5889 52.0139 62.2677 53.7852 61.4267 54.458C60.9494 54.8398 61.0212 55.3205 61.3088 54.458" stroke="black" stroke-width="1.54" stroke-linecap="round"/>
<path d="M64.6108 54.458C64.9839 53.4882 66.1203 51.7183 66.9695 51.051C67.3789 50.7294 67.4477 50.3108 67.782 49.9767C68.0371 49.7214 68.5587 49.8754 68.6205 49.5049C68.8941 47.8634 72.3943 47.3274 72.3943 45.4952" stroke="black" stroke-width="1.54" stroke-linecap="round"/>
<path d="M72.3944 45.731C72.3944 49.2876 72.6302 52.8127 72.6302 56.345" stroke="black" stroke-width="1.54" stroke-linecap="round"/>
<path d="M74.2812 46.2028C74.2812 47.6607 74.1608 50.1512 74.753 51.4834C75.5164 53.2013 75.2248 55.3783 75.2248 57.2884" stroke="black" stroke-width="1.54" stroke-linecap="round"/>
<path d="M77.8192 56.5808C78.6563 55.7184 79.0751 54.6552 79.8897 53.8029C80.5076 53.1561 81.3091 52.6437 81.8289 51.9159C82.2369 51.3449 82.9979 50.9408 83.2441 50.4483" stroke="black" stroke-width="1.54" stroke-linecap="round"/>
<path d="M85.1311 50.4483C85.9019 52.0757 86.418 54.2231 87.909 55.2967C88.9045 56.0134 89.394 57.766 90.7918 58.2318" stroke="black" stroke-width="1.54" stroke-linecap="round"/>
<path d="M80.4138 58.2318C80.9842 57.9783 81.7582 56.0615 82.1172 55.4539C82.478 54.8434 82.5559 54.1293 82.8772 53.5669C83.425 52.6083 84.31 51.2605 84.6593 50.2125" stroke="black" stroke-width="1.54" stroke-linecap="round"/>
<path d="M83.4799 52.5711C84.135 52.7166 85.3381 55.1596 85.6027 55.7553C86.0428 56.7456 87.1371 57.4101 87.4897 58.4678" stroke="black" stroke-width="1.54" stroke-linecap="round"/>
<path d="M64.8467 63.8926C64.7369 65.4841 63.9032 67.0302 63.9032 68.6099" stroke="black" stroke-width="1.54" stroke-linecap="round"/>
<path d="M64.6108 63.6567C65.3727 63.9742 66.2863 65.6084 66.6813 66.356C67.017 66.9917 67.2674 68.5671 67.7295 69.0292C67.8789 69.1786 67.9115 68.6372 67.9261 68.4265C67.9919 67.4722 68.2922 66.6321 68.5681 65.7271C68.8472 64.8116 68.8565 63.893 68.8565 62.9491" stroke="black" stroke-width="1.54" stroke-linecap="round"/>
<path d="M70.2715 63.8926C73.4201 63.9776 76.5409 64.8361 79.7062 64.8361" stroke="black" stroke-width="1.54" stroke-linecap="round"/>
<path d="M76.1682 64.8361C76.1682 66.0503 76.1682 67.2646 76.1682 68.4788C76.1682 69.1607 75.6964 69.7333 75.6964 70.4968" stroke="black" stroke-width="1.54" stroke-linecap="round"/>
<path d="M80.6496 64.8361C80.6987 67.0436 80.8855 69.2258 80.8855 71.4402" stroke="black" stroke-width="1.54" stroke-linecap="round"/>
<path d="M80.6496 65.0719C82.6218 65.0719 83.7308 65.07 83.4931 67.0898C83.3107 68.6395 81.4206 69.7891 79.942 69.7891" stroke="black" stroke-width="1.54" stroke-linecap="round"/>
<path d="M85.8387 66.2513C85.8387 67.5481 85.7021 68.9643 85.8387 70.261C85.9361 71.1875 88.0689 71.6762 88.8 71.6762C91.5345 71.6762 90.0842 67.5897 90.0842 66.0153" stroke="black" stroke-width="1.54" stroke-linecap="round"/>
<rect x="1.83884" y="2.28516" width="147" height="147" rx="73.5" stroke="black" stroke-width="3"/>
</svg>
