<svg width="151" height="151" viewBox="0 0 151 151" fill="none" xmlns="http://www.w3.org/2000/svg">
<path d="M84.6264 19.567C84.6972 19.5688 84.7379 19.5399 84.8007 19.5098C85.0666 19.3823 85.3887 19.3145 85.6826 19.295C86.2276 19.2588 86.7702 19.31 87.3037 19.4279C87.8366 19.5456 88.3086 19.8474 88.7586 20.1428C89.1223 20.3815 89.6247 20.4774 89.9395 20.775C90.2287 21.0484 90.5719 21.2336 90.8587 21.5054C91.1522 21.7836 91.447 22.082 91.6776 22.4152C91.8663 22.6881 92.226 22.9615 92.5205 23.1097C92.8697 23.2853 93.2273 23.4478 93.5846 23.6062C93.989 23.7855 94.4972 23.9111 94.8389 24.2033C94.9672 24.3131 94.9939 24.4079 95.1642 24.4493C95.383 24.5025 95.5896 24.5869 95.8055 24.6495C96.2959 24.7917 96.7701 24.9197 97.2289 25.1507C97.7211 25.3985 98.2022 25.5941 98.7247 25.7756C99.1093 25.9092 99.4846 25.9732 99.8373 26.187C100.084 26.3368 100.314 26.5262 100.562 26.6701C100.636 26.7127 100.774 26.743 100.856 26.7564C101.128 26.8009 101.402 26.8652 101.649 26.9913C101.682 27.008 101.894 27.1782 101.745 27.1743C101.341 27.1639 100.95 27.2394 100.547 27.2606C99.7396 27.3032 98.9265 27.3295 98.1175 27.3027C97.5224 27.2831 96.9146 27.1502 96.328 27.0559C95.7418 26.9616 95.163 26.8706 94.5801 26.7546C93.3144 26.5029 92.1321 25.9826 90.8431 25.8095C90.3182 25.739 89.7792 25.7814 89.2541 25.6851C89.0002 25.6385 88.7451 25.5886 88.4869 25.582C88.0444 25.5705 87.5981 25.5889 87.1764 25.7286C86.9181 25.8141 86.655 26.0055 86.4159 26.1394C86.0439 26.3477 85.7127 26.5661 85.4066 26.8662C84.7353 27.5245 84.35 28.5143 84.2325 29.434C84.1375 30.1775 84.1384 30.926 84.1191 31.6743C84.1024 32.3205 84.058 32.9646 84.0413 33.6101C84.0277 34.1357 84.0164 34.6588 84.07 35.183C84.0934 35.4111 84.1509 35.6352 84.1496 35.8654C84.1492 35.9443 84.1166 36.0777 84.1704 36.1344" stroke="black" stroke-width="2" stroke-linecap="round"/>
<path d="M85.0541 19.1337C85.0443 19.2052 84.9776 19.2106 84.9221 19.2275C84.6331 19.3156 84.3101 19.3881 84.047 19.5412C83.2244 20.0195 82.8379 21.0788 82.4662 21.9025C82.0729 22.7743 81.7458 23.6726 81.4481 24.5823C81.3725 24.8135 81.3409 25.032 81.3069 25.2729C81.259 25.6118 81.1545 25.9486 81.0985 26.2889C81.0182 26.7768 80.9244 27.2661 80.8816 27.7582C80.7317 29.4822 80.7153 31.2068 80.6706 32.9351C80.6493 33.7603 80.576 34.5911 80.5849 35.4153C80.5897 35.8537 80.5837 36.2973 80.5724 36.7357C80.5705 36.8108 80.5435 36.9797 80.6521 36.8766" stroke="black" stroke-width="2" stroke-linecap="round"/>
<path d="M99.9941 26.6847C99.8484 26.6971 99.6864 26.7729 99.5316 26.79C99.3616 26.8089 99.1965 26.803 99.0253 26.7985C98.6352 26.7885 98.2519 26.723 97.8612 26.7129C97.5132 26.7039 97.1703 26.6848 96.8294 26.6369C96.6323 26.6092 96.4457 26.557 96.2491 26.5262C96.0764 26.4991 95.9147 26.5038 95.7515 26.4378C95.4694 26.3235 95.1569 26.2776 94.8681 26.1758C94.4541 26.0299 94.1056 25.7636 93.6915 25.6177C93.2187 25.4512 92.7507 25.2074 92.3023 24.9832C91.628 24.646 90.9214 24.2337 90.3473 23.7416C89.896 23.3548 89.014 21.902 90.2243 21.9333C90.4649 21.9396 90.7802 22.0726 90.9316 22.2633C90.9691 22.3104 91.0971 22.5104 91.0579 22.5103C90.97 22.5101 90.6346 22.4469 90.6044 22.568C90.5626 22.7356 90.7554 22.8854 90.8557 22.9911C91.0951 23.2431 91.3337 23.4976 91.5879 23.7351C91.946 24.0698 92.2769 24.435 92.7194 24.6638C93.2444 24.9353 93.7881 25.0232 94.354 25.1736C95.0578 25.3605 95.7609 25.567 96.4533 25.7909C96.7853 25.8983 97.1146 26.0268 97.4373 26.1589C97.8329 26.3207 98.2106 26.5618 98.6357 26.5941" stroke="black" stroke-width="2" stroke-linecap="round"/>
<path d="M92.3016 23.4589C92.2993 23.549 92.3244 23.5954 92.3795 23.6707C92.6779 24.0793 93.0439 24.3576 93.488 24.5942C93.8437 24.7837 94.2151 24.9465 94.5857 25.1039C94.7086 25.1561 94.8978 25.3022 95.0317 25.279" stroke="black" stroke-width="2" stroke-linecap="round"/>
<path d="M89.8647 22.1184C89.5871 22.1113 89.3096 22.1041 89.0321 22.0969C88.7483 22.0896 88.5179 22.3238 88.6068 22.6151C88.7166 22.9753 88.9956 23.1699 89.2763 23.393C89.6231 23.6687 89.8938 23.9601 90.3432 24.0192" stroke="black" stroke-width="2" stroke-linecap="round"/>
<path d="M90.0355 21.9562C89.9622 22.0118 89.7408 21.9905 89.658 21.9958C89.4742 22.0076 89.2964 22.0361 89.1161 22.0713" stroke="black" stroke-width="2" stroke-linecap="round"/>
<path d="M90.6497 24.0271C90.6211 24.0577 90.6192 24.0843 90.6207 24.0264" stroke="black" stroke-width="2" stroke-linecap="round"/>
<path d="M90.5147 23.8293C90.7033 23.8341 90.838 23.826 91.0248 23.9119C91.235 24.0085 91.4008 24.225 91.6133 24.302" stroke="black" stroke-width="2" stroke-linecap="round"/>
<path d="M89.8451 23.9508C89.8955 23.9572 89.9273 23.9923 89.9732 24.0096C90.3103 24.1372 90.6793 24.1948 91.0275 24.2868C91.5673 24.4295 92.0804 24.5986 92.6002 24.7996" stroke="black" stroke-width="2" stroke-linecap="round"/>
<path d="M84.1662 36.0281C84.1203 37.8057 84.2346 39.5951 84.2686 41.374C84.2829 42.1207 84.3267 42.8703 84.326 43.6167C84.3257 44.0104 84.3192 44.4026 84.3526 44.7957C84.4141 45.5183 84.4251 46.2535 84.4426 46.9772C84.453 47.4079 84.5166 47.8481 84.5815 48.2732C84.6505 48.725 84.6215 49.1837 84.6901 49.6354C84.7546 50.0594 84.7091 50.4372 84.6983 50.856C84.6878 51.2609 84.6774 51.6658 84.6669 52.0707C84.6616 52.274 84.6564 52.4773 84.6511 52.6806C84.6461 52.8734 84.6098 53.0891 84.6581 53.2761" stroke="black" stroke-width="2" stroke-linecap="round"/>
<path d="M80.8068 35.8772C80.8011 36.0982 80.6515 36.2784 80.6365 36.4984C80.6185 36.761 80.5779 37.0179 80.5477 37.2803C80.4481 38.146 80.5324 39.0334 80.5099 39.9019C80.4979 40.3659 80.4859 40.8298 80.4739 41.2937C80.4624 41.7398 80.4509 42.1859 80.4394 42.632C80.4257 43.1591 80.3087 43.6685 80.2834 44.19C80.2565 44.7433 80.0856 45.296 79.9709 45.836C79.7616 46.8211 79.5232 47.9139 79.0837 48.8235C78.9189 49.1646 78.7513 49.4981 78.5776 49.8346C78.3905 50.1971 78.0919 50.5094 77.8574 50.8423C77.5989 51.2092 77.2136 51.4743 76.9637 51.8434C76.3682 52.7229 75.7853 53.5887 75.188 54.4758C74.7895 55.0676 74.3476 55.6224 73.9476 56.2093C73.8755 56.3151 73.7495 56.3658 73.6709 56.4678C73.5231 56.6597 73.3969 56.8721 73.2568 57.0699C72.9804 57.4604 72.7317 57.8604 72.4402 58.2401C71.7254 59.1715 70.897 60.0216 70.2455 61.001C69.9701 61.415 69.6769 61.7951 69.4232 62.2268C69.1674 62.6618 68.8116 63.0455 68.646 63.5287C68.4055 64.231 67.8459 64.8635 67.7755 65.6231C67.7324 66.0886 67.6341 66.5377 67.6219 67.0076" stroke="black" stroke-width="2" stroke-linecap="round"/>
<path d="M84.5825 52.4431C84.5751 52.7281 84.4922 52.9935 84.4539 53.2755C84.3712 53.8829 84.3752 54.4952 84.3594 55.1071C84.3026 57.3027 84.2533 59.469 83.9781 61.6495C83.784 63.1884 83.5699 64.7594 83.5301 66.3003" stroke="black" stroke-width="2" stroke-linecap="round"/>
<path d="M83.811 65.4566C83.8037 65.7363 83.5365 65.8183 83.4637 66.0583C83.1081 67.2304 82.9521 68.4744 82.6543 69.6678C81.9921 72.3218 80.5317 74.4929 79.0468 76.7274C78.3974 77.7046 77.8831 78.7553 77.1049 79.6416C76.4155 80.4267 75.501 80.9423 74.5944 81.4354C73.8609 81.8342 73.1675 82.2896 72.465 82.744C71.8454 83.1449 71.2221 83.4272 70.5494 83.7265C69.9397 83.9977 69.4389 84.466 68.9241 84.8823C68.4123 85.2963 67.9463 85.7445 67.5405 86.2629C67.1731 86.7323 66.937 87.274 66.591 87.7574C65.7777 88.8937 65.0055 89.91 63.8622 90.7644C63.0443 91.3758 62.2154 91.972 61.3984 92.5857C61.1034 92.8073 60.8072 92.9825 60.4657 93.1224C60.132 93.259 59.8048 93.4443 59.4869 93.6131C59.2032 93.7637 58.9002 93.8188 58.6226 93.9488C58.3557 94.0737 58.128 94.2722 57.8314 94.31C57.5686 94.3435 57.316 94.3415 57.0488 94.3346" stroke="black" stroke-width="2" stroke-linecap="round"/>
<path d="M67.6781 66.2716C67.6711 66.5434 67.5686 66.8025 67.5414 67.0816C67.4769 67.7434 67.4911 68.4088 67.4636 69.0725C67.4438 69.5498 67.2973 70.0071 67.2849 70.4842C67.2682 71.1312 67.2178 71.7776 67.1428 72.4182C67.0859 72.9042 66.9326 73.3497 66.9138 73.8444C66.8909 74.4439 66.7978 75.0407 66.7725 75.6415C66.752 76.1311 66.5505 76.6251 66.4296 77.0963C66.2183 77.9199 65.8707 78.7161 65.5095 79.4867C64.0087 82.6892 61.7283 85.4567 59.9017 88.4638C59.2117 89.5997 58.3048 90.5957 57.6397 91.7435C57.2889 92.3489 57.1991 92.9793 57.077 93.6508C57.0543 93.7761 56.9504 94.6145 57.0427 94.5713" stroke="black" stroke-width="2" stroke-linecap="round"/>
<path d="M67.937 65.4253C67.9103 65.6367 67.7048 65.8543 67.5875 66.0113C67.2626 66.446 67.078 66.8806 66.8911 67.3886C66.4222 68.6625 65.9217 69.8491 65.2855 71.0433C64.1834 73.112 62.7985 74.9487 61.367 76.7917C61.0958 77.1409 60.8929 77.5293 60.6176 77.8754C60.2071 78.3917 59.7715 78.883 59.3877 79.4206C58.1694 81.1275 57.4414 83.0596 57.2652 85.1496C57.1259 86.8012 57.1051 88.4921 57.0622 90.149C57.0549 90.4337 57.0862 90.7417 57.145 91.0199C57.2656 91.5902 57.3196 92.1719 57.4693 92.7343" stroke="black" stroke-width="2" stroke-linecap="round"/>
<path d="M65.766 70.5818C65.4562 71.1984 65.4602 71.9506 65.2844 72.6123C64.9226 73.9748 64.6019 75.344 64.21 76.6993C63.5818 78.8719 62.6467 80.9297 61.5175 82.8875C60.1504 85.2576 59.0017 87.8059 57.2574 89.9328" stroke="black" stroke-width="2" stroke-linecap="round"/>
<path d="M76.1374 80.6724C76.1279 81.0415 76.1029 81.3895 75.8367 81.6555C75.427 82.0651 75.3838 82.6195 75.275 83.1549C75.0629 84.1985 74.8182 85.2349 74.5402 86.2615C74.4713 86.516 74.4423 86.8225 74.3087 87.0538C73.6512 88.1925 73.5056 89.6418 73.2033 90.894C73.0437 91.5547 72.9772 92.1857 72.9597 92.8634C72.9531 93.117 72.9466 93.3707 72.94 93.6244C72.9375 93.722 72.9867 94.2637 72.8762 93.9653" stroke="black" stroke-width="2" stroke-linecap="round"/>
<path d="M73.2029 89.845C73.1668 91.2386 72.8896 92.608 73.0398 94.0245C73.1817 95.3634 73.0838 96.7316 73.2657 98.0613C73.5371 100.044 73.5332 102.094 73.5932 104.088C73.6244 105.127 73.6975 106.128 73.9116 107.149C74.0198 107.665 74.0795 108.188 74.1895 108.703C74.212 108.809 74.2385 109.308 74.3556 109.142" stroke="black" stroke-width="2" stroke-linecap="round"/>
<path d="M73.5809 90.13C73.4315 90.4272 73.3486 90.7463 73.3362 91.0779C73.3245 91.3894 72.7378 93.6314 72.8847 93.6352" stroke="black" stroke-width="2" stroke-linecap="round"/>
<path d="M73.7179 89.0876C73.7021 89.6971 73.5718 90.289 73.5609 90.9002C73.5469 91.6888 73.6025 92.4712 73.5427 93.2607C73.5137 93.6437 73.4221 94.1418 73.4135 94.4746" stroke="black" stroke-width="2" stroke-linecap="round"/>
<path d="M75.1314 108.652C75.1244 108.923 74.9841 109.017 75.2608 109.197C75.5422 109.379 75.8485 109.396 76.1666 109.475C77.1878 109.727 78.2553 109.783 79.2943 109.953C79.8464 110.044 80.4286 110.031 80.9604 110.211C81.2918 110.324 81.6044 110.39 81.9489 110.442C82.4073 110.512 82.823 110.553 83.2989 110.565" stroke="black" stroke-width="2" stroke-linecap="round"/>
<path d="M74.6439 109.344C74.65 109.406 74.7376 109.462 74.7697 109.523C74.9517 109.872 75.1834 110.206 75.4355 110.509C75.8898 111.054 76.4631 111.453 77.0815 111.797C77.3328 111.937 77.6816 112.297 77.9746 112.189" stroke="black" stroke-width="2" stroke-linecap="round"/>
<path d="M74.5342 109.048C74.6259 109.06 74.681 109.14 74.7658 109.171C74.9285 109.23 75.1382 109.188 75.2975 109.162C75.8886 109.066 76.4658 108.897 77.0634 108.839C77.2498 108.821 77.9792 108.908 78.0656 108.669" stroke="black" stroke-width="2" stroke-linecap="round"/>
<path d="M75.7705 108.903C75.7362 109.153 74.9227 108.999 74.7703 108.995C74.4569 108.987 75.0655 110.154 75.4575 109.658" stroke="black" stroke-width="2" stroke-linecap="round"/>
<path d="M68.9415 84.7216C68.9756 85.2463 69.0901 85.7872 68.7527 86.2232C68.5078 86.5396 68.4273 87.0055 68.3477 87.3833C68.1784 88.1866 68.1067 89.0109 67.9879 89.8228C67.8299 90.9029 67.8683 91.9299 67.8401 93.0177C67.8135 94.0493 67.7673 95.0701 67.7669 96.1038C67.7664 97.4075 67.8979 98.7157 67.8288 100.018C67.7379 101.729 67.6945 103.446 67.6502 105.159C67.6329 105.83 68.0672 105.856 68.6993 105.949C69.7422 106.102 70.7447 106.528 71.7748 106.684C71.9981 106.718 72.3138 106.435 72.5167 106.364C72.6535 106.316 73.2015 106.321 73.0835 106.134" stroke="black" stroke-width="2" stroke-linecap="round"/>
<path d="M68.1808 105.068C68.2778 105.083 68.3322 105.221 68.4403 105.248C68.7329 105.321 69.1722 105.068 69.4859 105.037C70.2423 104.962 70.9953 104.769 71.7459 104.645C71.9144 104.618 72.8186 104.622 72.8913 104.486" stroke="black" stroke-width="2" stroke-linecap="round"/>
<path d="M76.0683 79.2126C76.3657 79.5257 75.921 79.9268 75.7493 80.2022" stroke="black" stroke-width="2" stroke-linecap="round"/>
<path d="M60.2783 79.274C60.2755 79.3816 60.2979 79.5226 60.2692 79.6259C60.2025 79.8661 59.982 80.1003 59.8794 80.3266C59.6736 80.7806 59.557 81.2694 59.4642 81.7572C59.3264 82.4807 59.3502 83.2281 59.3942 83.9596C59.443 84.7714 59.4588 85.5947 59.743 86.362" stroke="black" stroke-width="0.5" stroke-linecap="round"/>
<path d="M61.5389 78.1915C61.5174 78.3617 61.4003 78.4946 61.325 78.6424C60.8847 79.5071 60.6772 80.5157 60.5508 81.4723C60.4077 82.5561 60.4888 83.6232 60.7254 84.6854" stroke="black" stroke-width="0.5" stroke-linecap="round"/>
<path d="M62.3529 76.2169C61.9057 77.1012 61.9578 78.2691 61.9228 79.2318C61.8964 79.9595 61.8431 80.7129 61.9834 81.4311" stroke="black" stroke-width="0.5" stroke-linecap="round"/>
<path d="M63.4299 75.4231C63.4151 75.5211 63.2642 75.6082 63.2326 75.7375C62.9646 76.8367 62.8511 78.0147 63.1584 79.1137" stroke="black" stroke-width="0.5" stroke-linecap="round"/>
<path d="M47.7813 119.333C47.9286 119.321 47.9903 119.168 48.0057 119.036C48.1094 118.15 48.3873 117.289 48.5764 116.418C48.8963 114.944 49.5943 113.661 50.285 112.332C52.0133 109.005 54.0072 105.609 57.1006 103.36C58.1543 102.594 59.2999 101.977 60.4636 101.399C61.8374 100.716 63.1843 99.9919 64.6274 99.4616C67.1548 98.533 70.0575 97.448 72.7872 97.9714C74.6957 98.3374 76.6498 98.7489 78.5192 99.2809C80.3459 99.8007 82.5415 100.532 84.0118 101.782C85.0389 102.656 85.4775 104.295 86.0055 105.494C86.4908 106.595 86.9624 107.731 87.5397 108.788C88.2055 110.008 89.5827 109.857 90.5747 110.658C91.0246 111.021 91.3528 111.539 91.7515 111.956C92.506 112.744 93.3563 113.439 94.0466 114.289C95.2646 115.788 96.0795 117.692 97.0812 119.34C98.267 121.29 99.5239 123.266 100.475 125.345C101.399 127.362 101.272 129.764 101.556 131.936C101.616 132.391 101.68 132.837 101.668 133.296C101.664 133.468 101.638 133.61 101.73 133.756" stroke="black" stroke-width="2" stroke-linecap="round"/>
<path d="M47.808 118.303C47.7759 118.516 47.5359 118.817 47.4701 119.035C46.9359 120.806 46.638 122.658 46.2827 124.471C46.0298 125.762 46.2875 127.145 46.2247 128.457C46.1893 129.195 46.098 129.939 46.3852 130.633" stroke="black" stroke-width="2" stroke-linecap="round"/>
<path d="M67.7192 119.701C67.8157 119.716 67.9255 119.91 67.9323 120.001C67.9443 120.164 67.8894 120.343 67.8703 120.499C67.7744 121.285 67.8168 122.04 68.0151 122.809C68.2549 123.738 68.7536 124.644 69.4136 125.339" stroke="#FF0000" stroke-width="2" stroke-linecap="round"/>
<path d="M71.2309 120.528C71.2411 120.666 71.3233 120.773 71.3685 120.9C71.5592 121.434 71.3886 122.04 71.5906 122.59C71.9694 123.623 72.5968 124.486 73.2573 125.349C74.1026 126.452 75.6986 127.117 77.0152 127.409C77.9031 127.605 78.6289 127.287 79.4549 126.997C79.9796 126.814 80.8211 126.766 81.2691 126.419C81.7228 126.067 82.292 124.67 81.8074 124.261" stroke="#FF0000" stroke-width="2" stroke-linecap="round"/>
<path d="M74.6545 119.071C75.0281 119.508 74.6087 120.205 74.7958 120.723C74.9147 121.051 75.4654 121.87 75.4744 121.521" stroke="#FF0000" stroke-width="2" stroke-linecap="round"/>
<path d="M80.5543 118.635C80.5332 119.452 80.8664 120.249 81.5722 120.706C81.8814 120.906 82.419 121.161 82.7335 120.862C82.9824 120.626 82.4985 120.085 82.3628 119.859" stroke="#FF0000" stroke-width="2" stroke-linecap="round"/>
<path d="M81.2389 100.692C81.2537 100.867 81.3864 100.914 81.371 101.117C81.2878 102.213 80.9951 103.242 80.631 104.275C80.4513 104.785 79.8477 106.641 79.2239 106.664C78.3683 106.695 77.4455 106.139 76.6905 105.801" stroke="black" stroke-linecap="round"/>
<path d="M65.9751 105.809C65.8366 105.907 65.6813 105.94 65.5196 105.986C64.1625 106.37 62.8091 106.793 61.4804 107.266C59.8757 107.836 58.4231 108.662 57.279 109.952C56.4362 110.902 55.5799 111.893 55.08 113.067C54.8663 113.569 54.6911 114.592 54.3183 114.946" stroke="black" stroke-linecap="round"/>
<path d="M60.9745 113.041C58.6296 114.519 56.58 116.631 54.5415 118.486C53.0487 119.844 51.3543 121.245 50.1129 122.86C48.8097 124.555 47.7349 126.768 47.1639 128.824" stroke="black" stroke-linecap="round"/>
<rect x="1.83884" y="2.28516" width="147" height="147" rx="73.5" stroke="black" stroke-width="3"/>
</svg>
