<svg width="151" height="151" viewBox="0 0 151 151" fill="none" xmlns="http://www.w3.org/2000/svg">
<path d="M26.3567 111.24C26.3567 111.549 27.0566 110.531 27.12 110.42C27.3665 109.988 27.5213 109.542 27.7279 109.077C27.9043 108.68 27.8834 107.92 27.8834 107.479C27.8834 107.002 27.9818 106.415 28.0106 105.896C28.0693 104.84 28.2651 103.804 28.2651 102.715C28.2651 101.732 29.1625 100.751 29.4172 99.8599C29.4708 99.6721 29.6235 99.405 29.7282 99.2167C29.8635 98.9731 29.7183 98.7041 29.8907 98.4886C30.1726 98.1363 29.7327 97.3924 29.6575 97.0538C29.5487 96.5645 29.3119 96.1131 29.2829 95.5907C29.2554 95.0962 29.0284 94.565 29.0284 94.1276C29.0284 93.1088 28.9012 92.1327 28.9012 91.0742C28.9012 90.0292 29.1883 88.9539 28.8729 87.9289C28.5422 86.854 28.774 85.4214 28.774 84.2958C28.774 83.7256 28.9012 83.2668 28.9012 82.6772C28.9012 82.1662 29.0792 81.2965 28.8729 80.8324C28.6107 80.2424 28.9012 79.6004 28.9012 78.9877C28.9012 78.4092 29.1226 77.8646 29.1556 77.2701C29.1846 76.7492 29.3864 75.8903 29.6009 75.4182C29.8393 74.8937 29.5911 74.1439 29.6716 73.5805C29.7414 73.0923 29.6922 72.3733 29.8907 71.9266C30.1144 71.4234 29.7102 70.6994 29.9826 70.209C30.3269 69.5893 29.9926 68.5632 30.2017 67.8836C30.3753 67.3196 30.3007 66.6699 30.3007 66.0742C30.3007 64.8445 30.9379 63.5907 31.4174 62.5118C31.844 61.552 32.5256 60.4141 33.2905 59.6492C33.9771 58.9626 34.3482 57.7857 35.206 57.2955C36.1772 56.7406 35.3928 55.4718 35.6513 54.5672C35.7756 54.1321 35.8702 53.5806 35.8986 53.0971C35.9134 52.8469 36.1376 51.7354 36.3439 51.5704C36.4794 51.462 36.7892 50.2625 36.7892 50.0436C36.7892 49.571 36.933 48.9836 37.1426 48.5876C37.3988 48.1038 37.6999 47.6453 37.9908 47.1881C38.3797 46.5769 38.3271 45.9472 38.5987 45.3363C38.9925 44.4501 39.7128 43.8251 40.5424 43.3643C40.94 43.1434 41.3861 42.8121 41.7228 42.509C42.1065 42.1636 42.6943 41.9944 43.0233 41.5831C43.5958 40.8675 45.0323 40.8245 45.8223 40.4734C46.8065 40.036 47.7805 39.9264 48.8757 39.8655C49.1057 39.8528 49.3123 39.6228 49.5119 39.6111C49.7854 39.595 50.0648 39.6111 50.3388 39.6111C50.8646 39.6111 51.4188 39.3866 51.9292 39.3566C53.3087 39.2755 54.6937 38.5933 56.1559 38.5933C56.8038 38.5933 57.4517 38.5933 58.0997 38.5933C58.9207 38.5933 59.721 38.3388 60.517 38.3388C61.2094 38.3388 61.8905 38.5933 62.6162 38.5933C63.1887 38.5933 63.7612 38.5933 64.3338 38.5933C65.3815 38.5933 66.2855 38.9173 67.3236 38.9749C69.4761 39.0945 71.5944 39.9928 73.7485 39.9928C75.0867 39.9928 76.3779 40.12 77.6925 40.12C78.7543 40.12 79.7845 39.6111 80.8732 39.6111C81.5767 39.6111 82.2535 39.3566 82.9724 39.3566C83.5025 39.3566 84.0326 39.3566 84.5628 39.3566C85.0787 39.3566 85.57 39.4269 86.0259 39.4838C86.2315 39.5095 86.378 39.7383 86.5984 39.7383C86.9654 39.7383 87.3433 39.6877 87.6798 39.8373C88.4665 40.1869 89.0559 40.8202 89.8427 41.2367C90.5495 41.6109 91.3292 42.0589 91.9066 42.6362C92.4506 43.1803 92.6977 44.159 93.0516 44.8274C93.4545 45.5884 94.1964 46.3568 94.4299 47.174C94.5462 47.5813 94.9062 47.956 94.9317 48.3897C94.9459 48.6312 95.0763 49.6504 95.2498 49.7892C95.9369 50.3389 95.7353 51.6683 96.1404 52.3973C96.3249 52.7295 96.4379 53.5114 96.4584 53.8604C96.4694 54.0461 96.5254 55.1609 96.6493 55.2599C96.975 55.5205 96.8391 56.1801 96.9956 56.5322C97.2322 57.0646 97.3113 57.6291 97.5752 58.1861C98.0862 59.2649 97.8579 60.108 97.8579 61.2396C97.8579 61.7773 98.2396 62.2976 98.2396 62.8299C98.2396 63.3812 98.2396 63.9325 98.2396 64.4838C98.2396 64.9898 98.4941 65.4833 98.4941 65.9469C98.4941 66.4802 98.7485 66.9282 98.7485 67.4101C98.7485 68.3114 99.0398 69.2168 99.6391 69.891C100.265 70.5956 100.758 71.4487 101.321 72.1528C101.904 72.8806 101.937 73.9136 102.594 74.5701C103.047 75.0233 103.887 76.2631 103.965 76.8884C104.018 77.3123 104.579 77.8414 104.792 78.2243C105.005 78.6085 105.356 79.0412 105.619 79.3693C106.208 80.1057 106.513 80.9354 106.891 81.7866C107.059 82.165 107.25 82.7355 107.273 83.1225C107.295 83.5018 107.389 84.2536 107.626 84.5503C107.828 84.8022 107.782 85.6538 107.782 85.9851C107.782 86.5152 107.782 87.0453 107.782 87.5754C107.782 88.5694 107.681 89.5487 108.29 90.3108C108.534 90.6155 108.826 90.9518 109.082 91.2367C109.35 91.5345 109.238 92.3281 109.499 92.5373C109.771 92.7551 109.671 93.7242 109.69 94.064C109.719 94.5778 109.817 95.1069 109.817 95.6543C109.817 96.7213 110.072 97.652 110.072 98.7078C110.072 99.2389 110.199 99.6349 110.199 100.171C110.199 100.621 110.045 101.414 110.227 101.825C110.62 102.708 110.464 103.726 110.863 104.624C111.273 105.546 111.893 106.234 112.114 107.232C112.233 107.767 112.362 108.112 112.362 108.695C112.362 109.052 112.257 109.985 112.553 110.222C112.767 110.393 112.77 111.146 112.97 111.395C113.019 111.457 113.238 111.875 113.238 111.939C113.238 112.159 112.065 110.956 111.98 110.858" stroke="#1E1E1E" stroke-width="2" stroke-linecap="round" stroke-linejoin="round"/>
<path d="M83.3541 43.3006C84.2873 43.3006 85.098 44.4052 85.517 45.1384C85.6942 45.4485 85.9422 46.0073 86.2167 46.2269C86.5956 46.53 86.4878 47.4616 86.8528 47.7536C87.0275 47.8933 87.0437 49.0279 87.0437 49.2803C87.0437 49.9002 87.1379 50.4675 87.1709 51.0615C87.1853 51.3209 87.4119 51.5959 87.4253 51.8248C87.4414 52.0969 87.3539 52.4034 87.5243 52.6164C87.6853 52.8177 87.6361 53.124 87.8353 53.3233C88.019 53.507 87.9343 54.3033 87.9343 53.4788" stroke="#1E1E1E" stroke-width="2" stroke-linecap="round" stroke-linejoin="round"/>
<path d="M88.0615 54.2421C88.2311 54.4117 88.4008 54.5814 88.5704 54.751" stroke="#1E1E1E" stroke-width="2" stroke-linecap="round" stroke-linejoin="round"/>
<path d="M89.9699 56.9138C90.319 56.9138 91.4876 58.0704 91.6238 58.3769C91.7613 58.6861 92.282 58.9313 92.3801 59.2746C92.4919 59.6657 92.8285 59.9741 92.995 60.3489C93.3046 61.0455 93.6595 62.1815 93.6595 62.9571C93.6595 63.8867 93.9897 64.8188 94.0411 65.6925C94.1461 67.4773 93.7867 69.1527 93.7867 71.036C93.7867 72.1334 94.0055 72.8515 94.3027 73.8915C94.4221 74.3094 94.8112 74.7173 94.9388 75.1638C95.0998 75.7272 95.2075 75.8282 95.3134 75.8706" stroke="#1E1E1E" stroke-width="2" stroke-linecap="round" stroke-linejoin="round"/>
<path d="M86.9164 62.5118C86.9535 62.5118 86.7892 63.9629 86.7892 64.2294C86.7892 64.999 86.9164 65.7865 86.9164 66.5195C86.9164 67.2468 87.0437 67.8348 87.0437 68.5551C87.0437 69.2234 87.4253 69.9281 87.4253 70.5907C87.4253 71.2559 87.807 71.8733 87.807 72.5627C87.807 73.0025 87.901 74.1751 88.1604 74.4994C88.2229 74.5775 88.3159 75.3199 88.3159 75.4253C88.3159 75.8084 88.4432 76.1201 88.4432 76.5068C88.4432 76.8947 88.5156 78.1783 88.5704 78.2879" stroke="#1E1E1E" stroke-width="2" stroke-linecap="round" stroke-linejoin="round"/>
<path d="M84.8808 83.377C84.449 83.377 84.2447 84.6683 84.2447 84.9673C84.2447 85.6224 84.4991 86.2291 84.4991 86.8757C84.4991 87.3865 84.6959 88.2408 84.9091 88.7205C85.1724 89.3128 85.1806 89.9858 85.6159 90.5299C85.9053 90.8917 86.1633 91.6505 86.2874 92.0849C86.3819 92.4157 86.7121 93.3407 86.9801 93.5551C87.2798 93.7949 87.5814 94.5817 87.7788 94.9546C87.9128 95.2078 88.1986 95.3578 88.3442 95.5907C88.4953 95.8325 88.6952 95.9736 88.6976 95.9724" stroke="#1E1E1E" stroke-width="2" stroke-linecap="round" stroke-linejoin="round"/>
<path d="M92.26 97.7535C92.601 97.7535 93.4836 99.1124 93.6312 99.4075C93.9477 100.041 94.6998 100.772 95.1579 101.344C95.9764 102.367 97.0166 103.458 97.7024 104.624C98.0459 105.208 98.4369 106.047 98.8475 106.56C99.0219 106.779 99.2243 107.523 99.2574 107.804C99.2905 108.086 99.5932 108.549 99.738 108.822C100.042 109.397 100.343 109.861 100.756 110.377C100.964 110.638 101.184 110.947 101.449 111.211C101.488 111.251 101.747 111.62 101.745 111.621C101.646 111.72 100.863 111.504 101.802 111.621" stroke="#1E1E1E" stroke-width="2" stroke-linecap="round" stroke-linejoin="round"/>
<path d="M93.9139 88.7205C94.0086 88.7205 94.7413 89.562 94.861 89.6817C95.2708 90.0915 95.6005 90.6379 95.9495 91.0742C96.2905 91.5004 96.712 91.8007 96.9956 92.2828C97.3476 92.8812 97.8026 93.5188 98.2679 94.0357C98.9599 94.8046 100.164 95.2604 100.784 96.036C101.44 96.856 102.432 97.544 102.919 98.5169C103.377 99.4335 104.463 100.292 104.735 101.245C104.779 101.399 105.025 101.798 105.138 101.924C105.323 102.129 105.331 102.465 105.463 102.715C105.695 103.152 105.814 103.914 106.099 104.27C106.367 104.604 106.146 105.656 106.446 105.896C106.759 106.147 106.202 107.185 106.135 107.486C105.942 108.355 105.492 109.851 105.492 110.349" stroke="#1E1E1E" stroke-width="2" stroke-linecap="round" stroke-linejoin="round"/>
<path d="M43.1505 56.6594C43.0761 56.6594 43.6273 56.7441 43.7867 56.8149C44.0296 56.9229 44.2099 57.1392 44.3945 57.3238C44.696 57.6253 45.1433 58.0246 45.5042 58.3134C45.9545 58.6736 45.9139 59.2867 46.2322 59.6846C46.5472 60.0783 46.9457 60.9413 47.0875 61.4375C47.4325 62.645 48.2809 63.4773 48.8475 64.5474C49.3065 65.4145 49.9667 66.218 50.6852 66.9365C52.1602 68.4115 54.329 69.7637 56.4457 69.7637C57.1195 69.7637 57.7321 69.6404 58.3541 69.5022C58.8938 69.3823 59.6896 69.2297 60.0999 68.9014C60.526 68.5606 61.3682 68.7474 61.7256 68.3006C61.9828 67.9791 62.3528 67.7311 62.7434 67.6009" stroke="#1E1E1E" stroke-width="0.5" stroke-linecap="round" stroke-linejoin="round"/>
<path d="M43.2778 56.9138C43.2778 57.139 44.4649 56.9665 44.6773 57.2319C44.894 57.5029 45.3846 57.8049 45.6668 58.0871C45.9012 58.3216 46.4908 58.9672 46.5786 59.2746C46.6951 59.6825 47.298 60.0679 47.349 60.4762C47.3939 60.8354 47.8892 61.2786 48.1124 61.5576C48.3938 61.9093 48.6364 62.2762 48.904 62.6108C49.5112 63.3698 50.2101 64.0627 50.975 64.6746C52.4136 65.8255 54.1892 67.1106 55.9297 67.6079C57.0141 67.9178 57.9072 68.237 59.1175 68.237C59.7236 68.237 60.2473 67.9825 60.835 67.9825C62.1133 67.9825 61.2869 67.9968 61.8528 67.8553" stroke="#1E1E1E" stroke-linecap="round" stroke-linejoin="round"/>
<path d="M57.5271 67.9826C57.93 67.9826 58.3329 67.9826 58.7358 67.9826C59.3417 67.9826 59.2223 68.1631 59.4355 68.1098" stroke="#1E1E1E" stroke-linecap="round" stroke-linejoin="round"/>
<path d="M47.7307 57.2955C47.8538 57.2955 47.4409 56.8379 47.349 56.723C47.1898 56.524 47.1771 56.013 47.0309 55.896C46.7024 55.6332 46.5856 54.339 46.5856 53.924C46.5856 53.1999 46.7992 52.5208 46.8401 51.8248C46.8691 51.332 47.5773 50.3764 47.6035 50.2981" stroke="#1E1E1E" stroke-linecap="round" stroke-linejoin="round"/>
<path d="M49.0029 58.8223C49.0029 58.5428 48.9038 57.2989 48.7202 57.0694C48.3294 56.5809 48.494 55.559 48.494 54.9419C48.494 54.2177 48.8344 53.5443 48.8757 52.8426C48.8879 52.6359 48.9438 52.1272 49.01 51.8955C49.1017 51.5746 49.0596 51.22 49.1372 50.8706C49.2656 50.293 49.7251 49.6877 50.0914 49.2167C50.5156 48.6713 50.8336 48.0151 51.3213 47.5274C52.0865 46.7622 52.946 45.1673 53.4559 44.8274" stroke="#1E1E1E" stroke-linecap="round" stroke-linejoin="round"/>
<path d="M50.6569 61.1123C50.6983 61.1537 50.8886 60.114 51.0103 59.8401C51.2211 59.3659 51.3238 58.9166 51.5758 58.4406C52.0426 57.5588 52.5614 56.5141 52.8268 55.585C53.3781 53.6556 55.3499 52.0371 56.7355 50.6515C57.4057 49.9813 58.2214 49.3982 58.9266 48.7714C59.7413 48.0472 61.0685 47.9773 62.0437 47.4355C62.5115 47.1756 63.1038 47.1858 63.5704 46.9266C64.0027 46.6864 64.5918 46.6085 65.0971 46.6085C65.586 46.6085 66.0963 46.3541 66.6238 46.3541C67.184 46.3541 68.2848 46.6085 68.2848 46.6085C68.2848 46.6085 67.2948 46.6939 66.9702 47.0185C66.6324 47.3563 66.0702 47.4468 65.6979 47.7818C65.3055 48.135 64.8026 48.2955 64.4256 48.6724C64.2017 48.8964 63.4933 49.3114 63.1816 49.4004C62.8078 49.5072 62.2433 49.7782 61.9801 50.1072C61.7029 50.4537 60.8652 50.5148 60.5806 50.8706C59.928 51.6863 58.7351 51.9598 58.0078 52.6871C57.6777 53.0172 57.1253 53.1386 56.7355 53.4505C56.3989 53.7197 55.9747 53.9427 55.647 54.2704C55.3482 54.5692 54.9087 55.1071 54.6009 55.2882C54.1191 55.5716 53.9364 56.1986 53.5195 56.5322C53.2754 56.7274 52.73 57.3324 52.5653 57.6207C52.3862 57.9341 51.9922 58.6192 51.7383 58.8223C51.4827 59.0268 51.1344 59.7274 51.0457 60.038C50.9799 60.268 50.7841 60.5753 50.7841 60.7943C50.7841 61.1174 50.5087 61.4232 50.7841 61.2396" stroke="#1E1E1E" stroke-linecap="round" stroke-linejoin="round"/>
<path d="M52.8197 59.4584C52.8197 59.5472 53.2346 59.1306 53.3287 59.0131C53.4592 58.8499 53.9876 58.4678 54.2192 58.4406C54.571 58.3992 55.1344 57.8348 55.4279 57.6065C55.7626 57.3462 56.1822 56.9073 56.58 56.7937C57.2284 56.6084 57.9145 55.896 58.6086 55.896C59.2406 55.896 60.3322 55.0866 60.9905 55.6133C61.1395 55.7325 61.9646 55.7688 62.1709 55.7688C62.5819 55.7688 63.005 56.1037 63.3795 56.1505C63.4448 56.1586 63.7776 56.332 63.733 56.3767C63.6026 56.507 63.3731 56.2777 63.1887 56.2777C62.7259 56.2777 62.3904 56.4049 61.9164 56.4049C61.0256 56.4049 60.2684 56.2777 59.3719 56.2777C58.983 56.2777 58.5997 56.4049 58.1633 56.4049C57.6991 56.4049 56.7542 56.8634 57.5271 56.5322" stroke="#1E1E1E" stroke-linecap="round" stroke-linejoin="round"/>
<path d="M55.746 66.0741C55.746 65.1741 55.6187 63.5145 55.6187 62.321C55.6187 62.1222 55.73 61.4073 55.5905 61.2678C55.5428 61.2202 55.6885 61.7788 55.8096 61.8757C56.3021 62.2697 56.421 62.709 56.7002 63.2116C56.9644 63.6871 57.1729 64.2955 57.4989 64.7029C57.6523 64.8947 57.6284 65.2754 57.7745 65.4946C57.9498 65.7574 57.6816 64.8361 57.8099 64.5474C58.0876 63.9224 57.5271 63.1487 57.5271 62.5118C57.5271 62.0756 57.4635 60.9215 57.6544 60.7306" stroke="#1E1E1E" stroke-linecap="round" stroke-linejoin="round"/>
<path d="M58.4177 61.1123C58.8032 61.1123 59.1864 60.7306 59.6264 60.7306C60.001 60.7306 60.7284 60.7839 60.835 60.7306" stroke="#1E1E1E" stroke-linecap="round" stroke-linejoin="round"/>
<path d="M59.4355 61.2396C59.8935 61.2396 59.69 63.1539 59.69 63.5933C59.69 63.929 60.0533 64.2356 60.0717 64.5475C60.1002 65.0321 60.0954 65.4035 60.1989 65.4381" stroke="#1E1E1E" stroke-linecap="round" stroke-linejoin="round"/>
<path d="M61.8528 60.9851C61.8528 62.2638 62.2345 63.666 62.2345 64.9291" stroke="#1E1E1E" stroke-linecap="round" stroke-linejoin="round"/>
<path d="M61.9801 60.7306C61.9801 60.0083 64.0887 60.5746 64.3691 60.8861C65.1718 61.778 62.6162 62.3831 62.6162 62.2573" stroke="#1E1E1E" stroke-linecap="round" stroke-linejoin="round"/>
<path d="M64.779 60.349C64.779 60.6627 64.9063 61.1107 64.9063 61.494C64.9063 61.7624 64.9006 62.5366 65.0618 62.738C65.5248 63.3168 65.3323 64.3382 66.2421 64.5404C67.5183 64.824 67.1963 63.5679 67.1963 62.7027C67.1963 62.3144 66.9419 61.8585 66.9419 61.4304C66.9419 60.9481 66.8922 60.5041 66.6874 60.0945" stroke="#1E1E1E" stroke-linecap="round" stroke-linejoin="round"/>
<path d="M48.3668 63.5296C48.8373 63.5296 49.4654 64.4444 49.7946 64.7736C50.0562 65.0352 50.3734 65.211 50.6286 65.4663C50.9018 65.7394 51.0781 66.1057 51.3566 66.3286C52.5994 67.3228 54.1755 67.744 55.3925 68.7176C55.8683 69.0982 57.1717 69.1276 57.7816 69.1276C57.885 69.1276 58.2763 69.2017 58.2763 69.1912C58.2763 69.0457 57.8887 68.8791 57.7816 68.8731C57.4008 68.852 56.9612 68.6979 56.5729 68.6116C56.0814 68.5024 55.6979 68.3642 55.1734 68.3642C54.7079 68.3642 54.3577 68.1098 53.9012 68.1098C53.3332 68.1098 53.5611 67.9511 53.8376 68.4349C53.9667 68.6608 54.2475 68.8464 54.4737 68.9721C55.06 69.2978 54.4779 68.6272 54.7281 69.1276" stroke="#1E1E1E" stroke-width="3" stroke-linecap="round" stroke-linejoin="round"/>
<path d="M52.947 56.0233C53.0042 56.0233 53.494 55.1641 53.6114 55.0337C53.8819 54.7331 54.2447 54.2217 54.4454 53.8604C54.8641 53.1068 55.5519 52.457 56.1559 51.8531C57.3317 50.6773 58.7393 49.4654 60.2271 48.8703C60.6133 48.7158 61.2535 48.4874 61.5701 48.2342C61.9365 47.941 62.6047 47.8899 62.9696 47.598C63.2146 47.402 63.8069 47.1174 64.1429 47.1174C64.3679 47.1174 65.2911 47.0435 65.4434 46.8912C65.7546 46.5801 64.5799 47.066 64.1429 47.1174C63.7727 47.1609 63.2386 47.7849 62.8706 47.9797C62.0756 48.4006 61.3713 49.155 60.5169 49.5347C60.2726 49.6433 59.3371 50.1667 59.1811 50.3617C58.9469 50.6543 58.3939 50.8307 58.0996 51.125C57.4584 51.7662 56.7743 52.6011 56.064 53.1536C55.7445 53.4021 55.2411 53.6009 54.9826 53.924C54.4696 54.5653 55.5661 53.7246 55.8096 53.5353C56.3184 53.1395 56.5913 52.5314 57.0818 52.1499C57.6729 51.6902 58.2732 51.2201 58.8559 50.7434C59.7137 50.0415 60.6868 49.5015 61.5347 48.842C61.9409 48.5261 62.5029 48.3112 62.9342 48.0716C63.2107 47.918 63.9792 47.7673 64.1429 47.5627C64.2667 47.4079 64.8732 47.269 64.7083 47.3789C64.5121 47.5098 64.3142 47.5863 64.0863 47.6899C63.7846 47.8271 63.5056 48.0226 63.1958 48.1352C62.7869 48.2839 62.4345 48.8046 62.0437 48.8915C61.2558 49.0666 60.3518 49.984 59.69 50.4253" stroke="#1E1E1E" stroke-width="3" stroke-linecap="round" stroke-linejoin="round"/>
<path d="M25.3388 113.148C25.3388 113.507 28.3561 112.598 28.7103 112.519C30.0621 112.218 31.5539 112.385 32.9159 112.137C33.5402 112.024 34.3018 112.148 34.9091 111.975C35.4748 111.813 36.8643 111.516 37.3971 111.904C37.6873 112.115 38.2207 111.869 38.5421 111.777C38.9378 111.664 39.7185 111.652 40.1254 111.777C41.1742 112.099 42.6772 111.76 43.6594 111.367" stroke="#1E1E1E" stroke-width="2" stroke-linecap="round" stroke-linejoin="round"/>
<path d="M67.578 112.766C68.4341 113.052 69.5098 112.893 70.4053 112.893C71.6147 112.893 72.7227 113.114 73.9393 112.766" stroke="#1E1E1E" stroke-width="2" stroke-linecap="round" stroke-linejoin="round"/>
<path d="M76.2294 112.512C77.9902 112.292 79.7839 112.263 81.5234 111.996C83.1558 111.745 84.7664 112.003 86.4075 112.003C87.7999 112.003 89.1928 111.748 90.606 111.748C92.0834 111.748 93.4775 111.24 94.9317 111.24" stroke="#1E1E1E" stroke-width="2" stroke-linecap="round" stroke-linejoin="round"/>
<path d="M104.983 113.021C106.495 113.021 108.008 113.021 109.52 113.021C110.711 113.021 111.81 112.512 112.991 112.512C113.884 112.512 114.704 112.13 115.571 112.13C116.942 112.13 118.345 112.257 119.741 112.257C120.5 112.257 121.258 112.257 122.017 112.257C123.162 112.257 124.198 112.67 125.339 112.385" stroke="#1E1E1E" stroke-width="2" stroke-linecap="round" stroke-linejoin="round"/>
<rect x="1.83884" y="2.28516" width="147" height="147" rx="73.5" stroke="black" stroke-width="3"/>
</svg>
