<svg width="103" height="78" viewBox="0 0 103 78" fill="none" xmlns="http://www.w3.org/2000/svg">
<path d="M2.35666 74.2396C2.35666 74.5488 3.0566 73.5306 3.12002 73.4197C3.36652 72.9883 3.5213 72.5415 3.72788 72.0767C3.90427 71.6798 3.88338 70.9196 3.88338 70.4793C3.88338 70.0016 3.98177 69.415 4.0106 68.8961C4.06927 67.8401 4.26506 66.8041 4.26506 65.7154C4.26506 64.7317 5.16253 63.7511 5.41716 62.8599C5.47081 62.6721 5.62354 62.405 5.72816 62.2167C5.86346 61.9731 5.71833 61.7041 5.89073 61.4886C6.17259 61.1363 5.73272 60.3924 5.65748 60.0538C5.54874 59.5645 5.31189 59.1131 5.28287 58.5907C5.2554 58.0962 5.02841 57.565 5.02841 57.1276C5.02841 56.1088 4.90119 55.1327 4.90119 54.0742C4.90119 53.0292 5.18832 51.9539 4.87292 50.9289C4.54219 49.854 4.77396 48.4214 4.77396 47.2958C4.77396 46.7256 4.90119 46.2668 4.90119 45.6772C4.90119 45.1662 5.07917 44.2965 4.87292 43.8324C4.61067 43.2424 4.90119 42.6004 4.90119 41.9877C4.90119 41.4092 5.12261 40.8646 5.15564 40.2701C5.18458 39.7492 5.38637 38.8903 5.60093 38.4182C5.83935 37.8937 5.59113 37.1439 5.67161 36.5805C5.74136 36.0923 5.69219 35.3733 5.89073 34.9266C6.11438 34.4234 5.71016 33.6994 5.98261 33.209C6.3269 32.5893 5.99262 31.5632 6.20172 30.8836C6.37526 30.3196 6.30068 29.6699 6.30068 29.0742C6.30068 27.8445 6.93793 26.5907 7.41744 25.5118C7.84404 24.552 8.5256 23.4141 9.2905 22.6492C9.97714 21.9626 10.3482 20.7857 11.206 20.2955C12.1772 19.7406 11.3928 18.4718 11.6513 17.5672C11.7756 17.1321 11.8702 16.5806 11.8986 16.0971C11.9134 15.8469 12.1376 14.7354 12.3439 14.5704C12.4794 14.462 12.7892 13.2625 12.7892 13.0436C12.7892 12.571 12.933 11.9836 13.1426 11.5876C13.3988 11.1038 13.6999 10.6453 13.9908 10.1881C14.3797 9.57694 14.3271 8.94722 14.5987 8.33626C14.9925 7.45008 15.7128 6.82512 16.5424 6.36425C16.94 6.14339 17.3861 5.81207 17.7228 5.50901C18.1065 5.16365 18.6943 4.99436 19.0233 4.58308C19.5958 3.86753 21.0323 3.8245 21.8223 3.47338C22.8065 3.03597 23.7805 2.92637 24.8757 2.86552C25.1057 2.85275 25.3123 2.62281 25.5119 2.61107C25.7854 2.59498 26.0648 2.61107 26.3388 2.61107C26.8646 2.61107 27.4188 2.38664 27.9292 2.35662C29.3087 2.27547 30.6937 1.59326 32.1559 1.59326C32.8038 1.59326 33.4517 1.59326 34.0997 1.59326C34.9207 1.59326 35.721 1.33881 36.517 1.33881C37.2094 1.33881 37.8905 1.59326 38.6162 1.59326C39.1887 1.59326 39.7612 1.59326 40.3338 1.59326C41.3815 1.59326 42.2855 1.91727 43.3236 1.97494C45.4761 2.09453 47.5944 2.99275 49.7485 2.99275C51.0867 2.99275 52.3779 3.11998 53.6925 3.11998C54.7543 3.11998 55.7845 2.61107 56.8732 2.61107C57.5767 2.61107 58.2535 2.35662 58.9724 2.35662C59.5025 2.35662 60.0326 2.35662 60.5628 2.35662C61.0787 2.35662 61.57 2.42686 62.0259 2.48384C62.2315 2.50954 62.378 2.7383 62.5984 2.7383C62.9654 2.7383 63.3433 2.68768 63.6798 2.83725C64.4665 3.18689 65.0559 3.82025 65.8427 4.23674C66.5495 4.61094 67.3292 5.0589 67.9066 5.63623C68.4506 6.18032 68.6977 7.15899 69.0516 7.82736C69.4545 8.58844 70.1964 9.35676 70.4299 10.174C70.5462 10.5813 70.9062 10.956 70.9317 11.3897C70.9459 11.6312 71.0763 12.6504 71.2498 12.7892C71.9369 13.3389 71.7353 14.6683 72.1404 15.3973C72.3249 15.7295 72.4379 16.5114 72.4584 16.8604C72.4694 17.0461 72.5254 18.1609 72.6493 18.2599C72.975 18.5205 72.8391 19.1801 72.9956 19.5322C73.2322 20.0646 73.3113 20.6291 73.5752 21.1861C74.0862 22.2649 73.8579 23.108 73.8579 24.2396C73.8579 24.7773 74.2396 25.2976 74.2396 25.8299C74.2396 26.3812 74.2396 26.9325 74.2396 27.4838C74.2396 27.9898 74.4941 28.4833 74.4941 28.9469C74.4941 29.4802 74.7485 29.9282 74.7485 30.4101C74.7485 31.3114 75.0398 32.2168 75.6391 32.891C76.2654 33.5956 76.7581 34.4487 77.3213 35.1528C77.9036 35.8806 77.9371 36.9136 78.5936 37.5701C79.0468 38.0233 79.8866 39.2631 79.9648 39.8884C80.0178 40.3123 80.579 40.8414 80.7918 41.2243C81.0052 41.6085 81.3562 42.0412 81.6187 42.3693C82.2078 43.1057 82.5127 43.9354 82.891 44.7866C83.0592 45.165 83.2499 45.7355 83.2727 46.1225C83.295 46.5018 83.3887 47.2536 83.6261 47.5503C83.8276 47.8022 83.7816 48.6538 83.7816 48.9851C83.7816 49.5152 83.7816 50.0453 83.7816 50.5754C83.7816 51.5694 83.6808 52.5487 84.2905 53.3108C84.5343 53.6155 84.8256 53.9518 85.0821 54.2367C85.3501 54.5345 85.2377 55.3281 85.4991 55.5373C85.7714 55.7551 85.6711 56.7242 85.69 57.064C85.7185 57.5778 85.8172 58.1069 85.8172 58.6543C85.8172 59.7213 86.0717 60.652 86.0717 61.7078C86.0717 62.2389 86.1989 62.6349 86.1989 63.1709C86.1989 63.621 86.0447 64.4143 86.2272 64.8248C86.6196 65.7077 86.4642 66.7259 86.8633 67.6238C87.2732 68.5461 87.8926 69.234 88.1144 70.2319C88.2333 70.7673 88.3617 71.1117 88.3617 71.695C88.3617 72.0518 88.2568 72.9851 88.5526 73.2218C88.767 73.3933 88.7703 74.1459 88.9696 74.3951C89.0192 74.4571 89.2382 74.8748 89.2382 74.9393C89.2382 75.1588 88.0655 73.9555 87.9801 73.8579" stroke="#1E1E1E" stroke-width="2" stroke-linecap="round" stroke-linejoin="round"/>
<path d="M59.3541 6.30064C60.2873 6.30064 61.098 7.40518 61.517 8.13836C61.6942 8.4485 61.9422 9.00725 62.2167 9.22685C62.5956 9.52998 62.4878 10.4616 62.8528 10.7536C63.0275 10.8933 63.0437 12.0279 63.0437 12.2803C63.0437 12.9002 63.1379 13.4675 63.1709 14.0615C63.1853 14.3209 63.4119 14.5959 63.4253 14.8248C63.4414 15.0969 63.3539 15.4034 63.5243 15.6164C63.6853 15.8177 63.6361 16.124 63.8353 16.3233C64.019 16.507 63.9343 17.3033 63.9343 16.4788" stroke="#1E1E1E" stroke-width="2" stroke-linecap="round" stroke-linejoin="round"/>
<path d="M64.0615 17.2421C64.2311 17.4117 64.4008 17.5814 64.5704 17.751" stroke="#1E1E1E" stroke-width="2" stroke-linecap="round" stroke-linejoin="round"/>
<path d="M65.9699 19.9138C66.319 19.9138 67.4876 21.0704 67.6238 21.3769C67.7613 21.6861 68.282 21.9313 68.3801 22.2746C68.4919 22.6657 68.8285 22.9741 68.995 23.3489C69.3046 24.0455 69.6595 25.1815 69.6595 25.9571C69.6595 26.8867 69.9897 27.8188 70.0411 28.6925C70.1461 30.4773 69.7867 32.1527 69.7867 34.036C69.7867 35.1334 70.0055 35.8515 70.3027 36.8915C70.4221 37.3094 70.8112 37.7173 70.9388 38.1638C71.0998 38.7272 71.2075 38.8282 71.3134 38.8706" stroke="#1E1E1E" stroke-width="2" stroke-linecap="round" stroke-linejoin="round"/>
<path d="M62.9164 25.5118C62.9535 25.5118 62.7892 26.9629 62.7892 27.2294C62.7892 27.999 62.9164 28.7865 62.9164 29.5195C62.9164 30.2468 63.0437 30.8348 63.0437 31.5551C63.0437 32.2234 63.4253 32.9281 63.4253 33.5907C63.4253 34.2559 63.807 34.8733 63.807 35.5627C63.807 36.0025 63.901 37.1751 64.1604 37.4994C64.2229 37.5775 64.3159 38.3199 64.3159 38.4253C64.3159 38.8084 64.4432 39.1201 64.4432 39.5068C64.4432 39.8947 64.5156 41.1783 64.5704 41.2879" stroke="#1E1E1E" stroke-width="2" stroke-linecap="round" stroke-linejoin="round"/>
<path d="M60.8808 46.377C60.449 46.377 60.2447 47.6683 60.2447 47.9673C60.2447 48.6224 60.4991 49.2291 60.4991 49.8757C60.4991 50.3865 60.6959 51.2408 60.9091 51.7205C61.1724 52.3128 61.1806 52.9858 61.6159 53.5299C61.9053 53.8917 62.1633 54.6505 62.2874 55.0849C62.3819 55.4157 62.7121 56.3407 62.9801 56.5551C63.2798 56.7949 63.5814 57.5817 63.7788 57.9546C63.9128 58.2078 64.1986 58.3578 64.3442 58.5907C64.4953 58.8325 64.6952 58.9736 64.6976 58.9724" stroke="#1E1E1E" stroke-width="2" stroke-linecap="round" stroke-linejoin="round"/>
<path d="M68.26 60.7535C68.601 60.7535 69.4836 62.1124 69.6312 62.4075C69.9477 63.0406 70.6998 63.7716 71.1579 64.3442C71.9764 65.3673 73.0166 66.4578 73.7024 67.6238C74.0459 68.2076 74.4369 69.0472 74.8475 69.5604C75.0219 69.7785 75.2243 70.5226 75.2574 70.8044C75.2905 71.0861 75.5932 71.5486 75.738 71.8222C76.0424 72.3971 76.3428 72.8609 76.7559 73.3772C76.9643 73.6378 77.1844 73.9471 77.4485 74.2113C77.488 74.2507 77.7471 74.6195 77.7454 74.6212C77.6464 74.7202 76.8631 74.5039 77.8019 74.6212" stroke="#1E1E1E" stroke-width="2" stroke-linecap="round" stroke-linejoin="round"/>
<path d="M69.9139 51.7205C70.0086 51.7205 70.7413 52.562 70.861 52.6817C71.2708 53.0915 71.6005 53.6379 71.9495 54.0742C72.2905 54.5004 72.712 54.8007 72.9956 55.2828C73.3476 55.8812 73.8026 56.5188 74.2679 57.0357C74.9599 57.8046 76.1637 58.2604 76.7841 59.036C77.4401 59.856 78.4322 60.544 78.9187 61.5169C79.377 62.4335 80.4629 63.2919 80.7352 64.2452C80.7793 64.3995 81.0247 64.7977 81.1381 64.9238C81.3231 65.1293 81.3308 65.4652 81.4632 65.7154C81.6946 66.1524 81.8144 66.9142 82.0994 67.2704C82.3666 67.6045 82.1456 68.656 82.4457 68.896C82.7594 69.147 82.2016 70.1852 82.1347 70.4864C81.9418 71.3547 81.4915 72.8513 81.4915 73.349" stroke="#1E1E1E" stroke-width="2" stroke-linecap="round" stroke-linejoin="round"/>
<path d="M19.1505 19.6594C19.0761 19.6594 19.6273 19.7441 19.7867 19.8149C20.0296 19.9229 20.2099 20.1392 20.3945 20.3238C20.696 20.6253 21.1433 21.0246 21.5042 21.3134C21.9545 21.6736 21.9139 22.2867 22.2322 22.6846C22.5472 23.0783 22.9457 23.9413 23.0875 24.4375C23.4325 25.645 24.2809 26.4773 24.8475 27.5474C25.3065 28.4145 25.9667 29.218 26.6852 29.9365C28.1602 31.4115 30.329 32.7637 32.4457 32.7637C33.1195 32.7637 33.7321 32.6404 34.3541 32.5022C34.8938 32.3823 35.6896 32.2297 36.0999 31.9014C36.526 31.5606 37.3682 31.7474 37.7256 31.3006C37.9828 30.9791 38.3528 30.7311 38.7434 30.6009" stroke="#1E1E1E" stroke-width="0.5" stroke-linecap="round" stroke-linejoin="round"/>
<path d="M19.2778 19.9138C19.2778 20.139 20.4649 19.9665 20.6773 20.2319C20.894 20.5029 21.3846 20.8049 21.6668 21.0871C21.9012 21.3216 22.4908 21.9672 22.5786 22.2746C22.6951 22.6825 23.298 23.0679 23.349 23.4762C23.3939 23.8354 23.8892 24.2786 24.1124 24.5576C24.3938 24.9093 24.6364 25.2762 24.904 25.6108C25.5112 26.3698 26.2101 27.0627 26.975 27.6746C28.4136 28.8255 30.1892 30.1106 31.9297 30.6079C33.0141 30.9178 33.9072 31.237 35.1175 31.237C35.7236 31.237 36.2473 30.9825 36.835 30.9825C38.1133 30.9825 37.2869 30.9968 37.8528 30.8553" stroke="#1E1E1E" stroke-linecap="round" stroke-linejoin="round"/>
<path d="M33.5271 30.9826C33.93 30.9826 34.3329 30.9826 34.7358 30.9826C35.3417 30.9826 35.2223 31.1631 35.4355 31.1098" stroke="#1E1E1E" stroke-linecap="round" stroke-linejoin="round"/>
<path d="M23.7307 20.2955C23.8538 20.2955 23.4409 19.8379 23.349 19.723C23.1898 19.524 23.1771 19.013 23.0309 18.896C22.7024 18.6332 22.5856 17.339 22.5856 16.924C22.5856 16.1999 22.7992 15.5208 22.8401 14.8248C22.8691 14.332 23.5773 13.3764 23.6035 13.2981" stroke="#1E1E1E" stroke-linecap="round" stroke-linejoin="round"/>
<path d="M25.0029 21.8223C25.0029 21.5428 24.9038 20.2989 24.7202 20.0694C24.3294 19.5809 24.494 18.559 24.494 17.9419C24.494 17.2177 24.8344 16.5443 24.8757 15.8426C24.8879 15.6359 24.9438 15.1272 25.01 14.8955C25.1017 14.5746 25.0596 14.22 25.1372 13.8706C25.2656 13.293 25.7251 12.6877 26.0914 12.2167C26.5156 11.6713 26.8336 11.0151 27.3213 10.5274C28.0865 9.7622 28.946 8.16732 29.4559 7.82738" stroke="#1E1E1E" stroke-linecap="round" stroke-linejoin="round"/>
<path d="M26.6569 24.1123C26.6983 24.1537 26.8886 23.114 27.0103 22.8401C27.2211 22.3659 27.3238 21.9166 27.5758 21.4406C28.0426 20.5588 28.5614 19.5141 28.8268 18.585C29.3781 16.6556 31.3499 15.0371 32.7355 13.6515C33.4057 12.9813 34.2214 12.3982 34.9266 11.7714C35.7413 11.0472 37.0685 10.9773 38.0437 10.4355C38.5115 10.1756 39.1038 10.1858 39.5704 9.92658C40.0027 9.68642 40.5918 9.60852 41.0971 9.60852C41.586 9.60852 42.0963 9.35406 42.6238 9.35406C43.184 9.35406 44.2848 9.60852 44.2848 9.60852C44.2848 9.60852 43.2948 9.69388 42.9702 10.0185C42.6324 10.3563 42.0702 10.4468 41.6979 10.7818C41.3055 11.135 40.8026 11.2955 40.4256 11.6724C40.2017 11.8964 39.4933 12.3114 39.1816 12.4004C38.8078 12.5072 38.2433 12.7782 37.9801 13.1072C37.7029 13.4537 36.8652 13.5148 36.5806 13.8706C35.928 14.6863 34.7351 14.9598 34.0078 15.6871C33.6777 16.0172 33.1253 16.1386 32.7355 16.4505C32.3989 16.7197 31.9747 16.9427 31.647 17.2704C31.3482 17.5692 30.9087 18.1071 30.6009 18.2882C30.1191 18.5716 29.9364 19.1986 29.5195 19.5322C29.2754 19.7274 28.73 20.3324 28.5653 20.6207C28.3862 20.9341 27.9922 21.6192 27.7383 21.8223C27.4827 22.0268 27.1344 22.7274 27.0457 23.038C26.9799 23.268 26.7841 23.5753 26.7841 23.7943C26.7841 24.1174 26.5087 24.4232 26.7841 24.2396" stroke="#1E1E1E" stroke-linecap="round" stroke-linejoin="round"/>
<path d="M28.8197 22.4584C28.8197 22.5472 29.2346 22.1306 29.3287 22.0131C29.4592 21.8499 29.9876 21.4678 30.2192 21.4406C30.571 21.3992 31.1344 20.8348 31.4279 20.6065C31.7626 20.3462 32.1822 19.9073 32.58 19.7937C33.2284 19.6084 33.9145 18.896 34.6086 18.896C35.2406 18.896 36.3322 18.0866 36.9905 18.6133C37.1395 18.7325 37.9646 18.7688 38.1709 18.7688C38.5819 18.7688 39.005 19.1037 39.3795 19.1505C39.4448 19.1586 39.7776 19.332 39.733 19.3767C39.6026 19.507 39.3731 19.2777 39.1887 19.2777C38.7259 19.2777 38.3904 19.4049 37.9164 19.4049C37.0256 19.4049 36.2684 19.2777 35.3719 19.2777C34.983 19.2777 34.5997 19.4049 34.1633 19.4049C33.6991 19.4049 32.7542 19.8634 33.5271 19.5322" stroke="#1E1E1E" stroke-linecap="round" stroke-linejoin="round"/>
<path d="M31.746 29.0741C31.746 28.1741 31.6187 26.5145 31.6187 25.321C31.6187 25.1222 31.73 24.4073 31.5905 24.2678C31.5428 24.2202 31.6885 24.7788 31.8096 24.8757C32.3021 25.2697 32.421 25.709 32.7002 26.2116C32.9644 26.6871 33.1729 27.2955 33.4989 27.7029C33.6523 27.8947 33.6284 28.2754 33.7745 28.4946C33.9498 28.7574 33.6816 27.8361 33.8099 27.5474C34.0876 26.9224 33.5271 26.1487 33.5271 25.5118C33.5271 25.0756 33.4635 23.9215 33.6544 23.7306" stroke="#1E1E1E" stroke-linecap="round" stroke-linejoin="round"/>
<path d="M34.4177 24.1123C34.8032 24.1123 35.1864 23.7306 35.6264 23.7306C36.001 23.7306 36.7284 23.7839 36.835 23.7306" stroke="#1E1E1E" stroke-linecap="round" stroke-linejoin="round"/>
<path d="M35.4355 24.2396C35.8935 24.2396 35.69 26.1539 35.69 26.5933C35.69 26.929 36.0533 27.2356 36.0717 27.5475C36.1002 28.0321 36.0954 28.4035 36.1989 28.4381" stroke="#1E1E1E" stroke-linecap="round" stroke-linejoin="round"/>
<path d="M37.8528 23.9851C37.8528 25.2638 38.2345 26.666 38.2345 27.9291" stroke="#1E1E1E" stroke-linecap="round" stroke-linejoin="round"/>
<path d="M37.9801 23.7306C37.9801 23.0083 40.0887 23.5746 40.3691 23.8861C41.1718 24.778 38.6162 25.3831 38.6162 25.2573" stroke="#1E1E1E" stroke-linecap="round" stroke-linejoin="round"/>
<path d="M40.779 23.349C40.779 23.6627 40.9063 24.1107 40.9063 24.494C40.9063 24.7624 40.9006 25.5366 41.0618 25.738C41.5248 26.3168 41.3323 27.3382 42.2421 27.5404C43.5183 27.824 43.1963 26.5679 43.1963 25.7027C43.1963 25.3144 42.9419 24.8585 42.9419 24.4304C42.9419 23.9481 42.8922 23.5041 42.6874 23.0945" stroke="#1E1E1E" stroke-linecap="round" stroke-linejoin="round"/>
<path d="M24.3668 26.5296C24.8373 26.5296 25.4654 27.4444 25.7946 27.7736C26.0562 28.0352 26.3734 28.211 26.6286 28.4663C26.9018 28.7394 27.0781 29.1057 27.3566 29.3286C28.5994 30.3228 30.1755 30.744 31.3925 31.7176C31.8683 32.0982 33.1717 32.1276 33.7816 32.1276C33.885 32.1276 34.2763 32.2017 34.2763 32.1912C34.2763 32.0457 33.8887 31.8791 33.7816 31.8731C33.4008 31.852 32.9612 31.6979 32.5729 31.6116C32.0814 31.5024 31.6979 31.3642 31.1734 31.3642C30.7079 31.3642 30.3577 31.1098 29.9012 31.1098C29.3332 31.1098 29.5611 30.9511 29.8376 31.4349C29.9667 31.6608 30.2475 31.8464 30.4737 31.9721C31.06 32.2978 30.4779 31.6272 30.7281 32.1276" stroke="#1E1E1E" stroke-width="3" stroke-linecap="round" stroke-linejoin="round"/>
<path d="M28.947 19.0233C29.0042 19.0233 29.494 18.1641 29.6114 18.0337C29.8819 17.7331 30.2447 17.2217 30.4454 16.8604C30.8641 16.1068 31.5519 15.457 32.1559 14.8531C33.3317 13.6773 34.7393 12.4654 36.2271 11.8703C36.6133 11.7158 37.2535 11.4874 37.5701 11.2342C37.9365 10.941 38.6047 10.8899 38.9696 10.598C39.2146 10.402 39.8069 10.1174 40.1429 10.1174C40.3679 10.1174 41.2911 10.0435 41.4434 9.89122C41.7546 9.58008 40.5799 10.066 40.1429 10.1174C39.7727 10.1609 39.2386 10.7849 38.8706 10.9797C38.0756 11.4006 37.3713 12.155 36.5169 12.5347C36.2726 12.6433 35.3371 13.1667 35.1811 13.3617C34.9469 13.6543 34.3939 13.8307 34.0996 14.125C33.4584 14.7662 32.7743 15.6011 32.064 16.1536C31.7445 16.4021 31.2411 16.6009 30.9826 16.924C30.4696 17.5653 31.5661 16.7246 31.8096 16.5353C32.3184 16.1395 32.5913 15.5314 33.0818 15.1499C33.6729 14.6902 34.2732 14.2201 34.8559 13.7434C35.7137 13.0415 36.6868 12.5015 37.5347 11.842C37.9409 11.5261 38.5029 11.3112 38.9342 11.0716C39.2107 10.918 39.9792 10.7673 40.1429 10.5627C40.2667 10.4079 40.8732 10.269 40.7083 10.3789C40.5121 10.5098 40.3142 10.5863 40.0863 10.6899C39.7846 10.8271 39.5056 11.0226 39.1958 11.1352C38.7869 11.2839 38.4345 11.8046 38.0437 11.8915C37.2558 12.0666 36.3518 12.984 35.69 13.4253" stroke="#1E1E1E" stroke-width="3" stroke-linecap="round" stroke-linejoin="round"/>
<path d="M1.33884 76.148C1.33884 76.5069 4.35611 75.5976 4.71034 75.5189C6.06213 75.2185 7.55387 75.3849 8.91588 75.1372C9.54023 75.0237 10.3018 75.1482 10.9091 74.9747C11.4748 74.813 12.8643 74.5165 13.3971 74.904C13.6873 75.115 14.2207 74.8686 14.5421 74.7767C14.9378 74.6637 15.7185 74.6516 16.1254 74.7767C17.1742 75.0995 18.6772 74.7597 19.6594 74.3668" stroke="#1E1E1E" stroke-width="2" stroke-linecap="round" stroke-linejoin="round"/>
<path d="M43.578 75.7663C44.4341 76.0516 45.5098 75.8935 46.4053 75.8935C47.6147 75.8935 48.7227 76.1139 49.9393 75.7663" stroke="#1E1E1E" stroke-width="2" stroke-linecap="round" stroke-linejoin="round"/>
<path d="M52.2294 75.5118C53.9902 75.2917 55.7839 75.2635 57.5234 74.9959C59.1558 74.7447 60.7664 75.0029 62.4075 75.0029C63.7999 75.0029 65.1928 74.7485 66.606 74.7485C68.0834 74.7485 69.4775 74.2396 70.9317 74.2396" stroke="#1E1E1E" stroke-width="2" stroke-linecap="round" stroke-linejoin="round"/>
<path d="M80.9826 76.0207C82.4952 76.0207 84.0078 76.0207 85.5203 76.0207C86.7109 76.0207 87.8099 75.5118 88.9908 75.5118C89.8844 75.5118 90.7041 75.1301 91.5707 75.1301C92.9417 75.1301 94.3453 75.2574 95.7409 75.2574C96.4995 75.2574 97.2582 75.2574 98.0168 75.2574C99.162 75.2574 100.198 75.6698 101.339 75.3846" stroke="#1E1E1E" stroke-width="2" stroke-linecap="round" stroke-linejoin="round"/>
</svg>
